<svg xmlns="http://www.w3.org/2000/svg" version="1.1" xmlns:xlink="http://www.w3.org/1999/xlink" width="96" height="96" x="0" y="0" viewBox="0 0 64 64" style="enable-background:new 0 0 96 96" xml:space="preserve" class=""><g><g data-name="Layer 34"><path fill="#5bb7d5" d="M59 32c0 2.05 4.81 4.06 4.44 6a31.953 31.953 0 0 1-10.53 18.22c-1.17 1.015-5.6-2.056-6.91-1.22-2.069 1.321-1.112 6.409-3.47 7.23a32.207 32.207 0 0 1-21.06 0c-2.287-.8-1.454-5.962-3.47-7.23-1.377-.866-5.684 2.284-6.91 1.22A31.953 31.953 0 0 1 .56 38C.19 36.06 5 34.05 5 32S.19 27.94.56 26A31.953 31.953 0 0 1 11.09 7.78C12.609 6.462 15 11 19 9c3.225-1.613.556-6.564 2.47-7.23a32.207 32.207 0 0 1 21.06 0C44.444 2.436 44.273 8 46 9c1.748 1.012 5.391-2.538 6.91-1.22A31.953 31.953 0 0 1 63.44 26c.37 1.94-4.44 3.95-4.44 6z" opacity="1" data-original="#333333" class=""></path><path fill="#f4eee9" d="M51 36h4.66a23.777 23.777 0 0 1-4.1 9.9l-3.3-3.29-5.65 5.65 3.29 3.3a23.777 23.777 0 0 1-9.9 4.1V51h-8v4.66a23.777 23.777 0 0 1-9.9-4.1l3.29-3.3-5.65-5.65-3.3 3.29a23.777 23.777 0 0 1-4.1-9.9H13v-8H8.34a23.777 23.777 0 0 1 4.1-9.9l3.3 3.29 5.65-5.65-3.29-3.3a23.777 23.777 0 0 1 9.9-4.1V13h8V8.34a23.777 23.777 0 0 1 9.9 4.1l-3.29 3.3 5.65 5.65 3.3-3.29a23.777 23.777 0 0 1 4.1 9.9H51zM64 32a32.038 32.038 0 0 1-.56 6H60a2.006 2.006 0 0 1-2-2v-8a2.006 2.006 0 0 1 2-2h3.44a32.038 32.038 0 0 1 .56 6z" opacity="1" data-original="#f4eee9" class=""></path><path d="M36 8.34V13h-8V8.34c.03-.01 1.58-.22 1.75-.23C30.02 8.08 31.52 8 32 8s2.59.14 2.76.16c.19.02 1.21.17 1.24.18zM21.39 15.74l-5.65 5.65-3.3-3.29c.04-.06 1.49-1.9 1.71-2.14.28-.32.58-.63.88-.93s.61-.6.93-.88c.24-.22 2.08-1.67 2.14-1.71zM13 28v8H8.34c-.01-.03-.28-2.3-.3-2.58C8.01 32.95 8 32.48 8 32s.01-.95.04-1.42c.02-.28.29-2.55.3-2.58zM21.39 48.26l-3.29 3.3c-.06-.04-1.9-1.49-2.14-1.71-.32-.28-.63-.58-.93-.88s-.6-.61-.88-.93c-.22-.24-1.67-2.08-1.71-2.14l3.3-3.29zM36 51v4.66c-.03.01-2.3.28-2.58.3-.47.03-.94.04-1.42.04s-.95-.01-1.42-.04c-.28-.02-2.55-.29-2.58-.3V51zM51.56 45.9c-.04.06-1.49 1.9-1.71 2.14-.28.32-.58.63-.88.93s-.61.6-.93.88c-.24.22-2.08 1.67-2.14 1.71l-3.29-3.3 5.65-5.65zM56 32c0 .48-.01.95-.04 1.42-.02.28-.29 2.55-.3 2.58H51v-8h4.66c.01.03.16 1.05.18 1.24.02.17.16 2.28.16 2.76zM51.56 18.1l-3.3 3.29-5.65-5.65 3.29-3.3c.06.04 1.9 1.49 2.14 1.71.32.28.63.58.93.88s.6.61.88.93c.22.24 1.67 2.08 1.71 2.14z" fill="#2d9bbe" opacity="1" data-original="#000000" class=""></path><circle cx="32" cy="32" r="21" fill="#2d9bbe" opacity="1" data-original="#000000" class=""></circle><g fill="#f4eee9"><path d="m52.91 7.78-1.71 2.97a2 2 0 0 1-2.74.73l-6.92-4a2 2 0 0 1-.74-2.73l1.73-2.98a31.759 31.759 0 0 1 10.38 6.01zM22.46 7.48l-6.92 4a2 2 0 0 1-2.74-.73l-1.71-2.97a31.759 31.759 0 0 1 10.38-6.01l1.73 2.98a2 2 0 0 1-.74 2.73z" fill="#f4eee9" opacity="1" data-original="#f4eee9" class=""></path><circle cx="32" cy="32" r="20" fill="#f4eee9" opacity="1" data-original="#f4eee9" class=""></circle><path d="M6 28v8a2.006 2.006 0 0 1-2 2H.56a32.423 32.423 0 0 1 0-12H4a2.006 2.006 0 0 1 2 2zM23.2 59.25l-1.73 2.98a31.759 31.759 0 0 1-10.38-6.01l1.71-2.97a2 2 0 0 1 2.74-.73l6.92 4a2 2 0 0 1 .74 2.73zM52.91 56.22a31.759 31.759 0 0 1-10.38 6.01l-1.73-2.98a2 2 0 0 1 .74-2.73l6.92-4a2 2 0 0 1 2.74.73z" fill="#f4eee9" opacity="1" data-original="#f4eee9" class=""></path></g><path d="M64 32a32.005 32.005 0 0 1-51.22 25.59A32.01 32.01 0 0 0 44.22 2.41 32.034 32.034 0 0 1 64 32z" opacity="1" fill="#00000020" data-original="#00000020" class=""></path><path fill="#cd262e" d="M22 35.35a5.7 5.7 0 0 1 1.424-3.82l1.706-1.9L32 22l6.871 7.634 1.706 1.9a5.836 5.836 0 0 1 0 7.637 4.518 4.518 0 0 1-6.87 0L32 37.271l-1.706 1.9a4.521 4.521 0 0 1-6.87 0A5.7 5.7 0 0 1 22 35.35z" opacity="0" data-original="#171717" class=""></path><path fill="#cd262e" d="M31.687 36.687h.625L34.187 42h-4.375z" opacity="0" data-original="#171717" class=""></path></g></g></svg>