<svg width="1068" height="488" viewBox="0 0 1068 488" fill="none" xmlns="http://www.w3.org/2000/svg">
<g opacity="0.9" filter="url(#filter0_d_2029_5)">
<mask id="path-1-inside-1_2029_5" fill="white">
<path fill-rule="evenodd" clip-rule="evenodd" d="M243.204 0C111.095 0 4 107.452 4 240C4 372.548 111.095 480 243.204 480H824.796C956.905 480 1064 372.548 1064 240C1064 107.452 956.905 0 824.796 0H243.204ZM265.15 40C143.012 40 44 129.543 44 240C44 350.457 143.012 440 265.15 440H802.85C924.988 440 1024 350.457 1024 240C1024 129.543 924.988 40 802.85 40H265.15Z"/>
</mask>
<path fill-rule="evenodd" clip-rule="evenodd" d="M243.204 0C111.095 0 4 107.452 4 240C4 372.548 111.095 480 243.204 480H824.796C956.905 480 1064 372.548 1064 240C1064 107.452 956.905 0 824.796 0H243.204ZM265.15 40C143.012 40 44 129.543 44 240C44 350.457 143.012 440 265.15 440H802.85C924.988 440 1024 350.457 1024 240C1024 129.543 924.988 40 802.85 40H265.15Z" fill="#324B73"/>
<path d="M5 240C5 108.001 111.65 1 243.204 1V-1C110.54 -1 3 106.903 3 240H5ZM243.204 479C111.65 479 5 371.999 5 240H3C3 373.097 110.54 481 243.204 481V479ZM824.796 479H243.204V481H824.796V479ZM1063 240C1063 371.999 956.349 479 824.796 479V481C957.46 481 1065 373.097 1065 240H1063ZM824.796 1C956.349 1 1063 108.001 1063 240H1065C1065 106.903 957.46 -1 824.796 -1V1ZM243.204 1H824.796V-1H243.204V1ZM45 240C45 130.188 143.468 41 265.15 41V39C142.557 39 43 128.899 43 240H45ZM265.15 439C143.468 439 45 349.812 45 240H43C43 351.101 142.557 441 265.15 441V439ZM802.85 439H265.15V441H802.85V439ZM1023 240C1023 349.812 924.532 439 802.85 439V441C925.443 441 1025 351.101 1025 240H1023ZM802.85 41C924.532 41 1023 130.188 1023 240H1025C1025 128.899 925.443 39 802.85 39V41ZM265.15 41H802.85V39H265.15V41Z" fill="#6D7D96" mask="url(#path-1-inside-1_2029_5)"/>
</g>
<defs>
<filter id="filter0_d_2029_5" x="0" y="0" width="1068" height="488" filterUnits="userSpaceOnUse" color-interpolation-filters="sRGB">
<feFlood flood-opacity="0" result="BackgroundImageFix"/>
<feColorMatrix in="SourceAlpha" type="matrix" values="0 0 0 0 0 0 0 0 0 0 0 0 0 0 0 0 0 0 127 0" result="hardAlpha"/>
<feOffset dy="4"/>
<feGaussianBlur stdDeviation="2"/>
<feComposite in2="hardAlpha" operator="out"/>
<feColorMatrix type="matrix" values="0 0 0 0 0 0 0 0 0 0 0 0 0 0 0 0 0 0 0.25 0"/>
<feBlend mode="normal" in2="BackgroundImageFix" result="effect1_dropShadow_2029_5"/>
<feBlend mode="normal" in="SourceGraphic" in2="effect1_dropShadow_2029_5" result="shape"/>
</filter>
</defs>
</svg>
