<svg width="38" height="38" viewBox="0 0 38 38" fill="none" xmlns="http://www.w3.org/2000/svg">
<g filter="url(#filter0_d_7_9)">
<path d="M4 10C4 4.47715 8.47715 0 14 0H24C29.5228 0 34 4.47715 34 10V20C34 25.5228 29.5228 30 24 30H14C8.47715 30 4 25.5228 4 20V10Z" fill="#536B92"/>
<path d="M4.5 10C4.5 4.75329 8.75329 0.5 14 0.5H24C29.2467 0.5 33.5 4.75329 33.5 10V20C33.5 25.2467 29.2467 29.5 24 29.5H14C8.75329 29.5 4.5 25.2467 4.5 20V10Z" stroke="#476087"/>
</g>
<defs>
<filter id="filter0_d_7_9" x="0" y="0" width="38" height="38" filterUnits="userSpaceOnUse" color-interpolation-filters="sRGB">
<feFlood flood-opacity="0" result="BackgroundImageFix"/>
<feColorMatrix in="SourceAlpha" type="matrix" values="0 0 0 0 0 0 0 0 0 0 0 0 0 0 0 0 0 0 127 0" result="hardAlpha"/>
<feOffset dy="4"/>
<feGaussianBlur stdDeviation="2"/>
<feComposite in2="hardAlpha" operator="out"/>
<feColorMatrix type="matrix" values="0 0 0 0 0 0 0 0 0 0 0 0 0 0 0 0 0 0 0.25 0"/>
<feBlend mode="normal" in2="BackgroundImageFix" result="effect1_dropShadow_7_9"/>
<feBlend mode="normal" in="SourceGraphic" in2="effect1_dropShadow_7_9" result="shape"/>
</filter>
</defs>
</svg>
