<svg width="42" height="58" viewBox="0 0 42 58" fill="none" xmlns="http://www.w3.org/2000/svg">
<g filter="url(#filter0_d_60_2)">
<rect x="4" width="34" height="50" rx="3" fill="#656262"/>
<rect x="4.5" y="0.5" width="33" height="49" rx="2.5" stroke="#A4A2A2" stroke-opacity="0.6"/>
<circle cx="11" cy="25" r="1" fill="#D9D9D9" fill-opacity="0.45"/>
<circle cx="11" cy="25" r="0.5" stroke="#A4A2A2" stroke-opacity="0.6"/>
<circle cx="27" cy="25" r="1" fill="#D9D9D9" fill-opacity="0.55"/>
<circle cx="27" cy="25" r="0.5" stroke="#A4A2A2" stroke-opacity="0.6"/>
<circle cx="31" cy="25" r="1" fill="#D9D9D9" fill-opacity="0.45"/>
<circle cx="31" cy="25" r="0.5" stroke="#A4A2A2" stroke-opacity="0.6"/>
<circle cx="7" cy="25" r="1" fill="#D9D9D9" fill-opacity="0.3"/>
<circle cx="7" cy="25" r="0.5" stroke="#A4A2A2" stroke-opacity="0.6"/>
<circle cx="35" cy="25" r="1" fill="#D9D9D9" fill-opacity="0.3"/>
<circle cx="35" cy="25" r="0.5" stroke="#A4A2A2" stroke-opacity="0.6"/>
<circle cx="15" cy="25" r="1" fill="#D9D9D9" fill-opacity="0.55"/>
<circle cx="15" cy="25" r="0.5" stroke="#A4A2A2" stroke-opacity="0.6"/>
<circle cx="23" cy="25" r="1" fill="#D9D9D9" fill-opacity="0.7"/>
<circle cx="23" cy="25" r="0.5" stroke="#A4A2A2" stroke-opacity="0.6"/>
<circle cx="19" cy="25" r="1" fill="#D9D9D9" fill-opacity="0.7"/>
<circle cx="19" cy="25" r="0.5" stroke="#A4A2A2" stroke-opacity="0.6"/>
<circle cx="11" cy="45" r="1" fill="#D9D9D9" fill-opacity="0.3"/>
<circle cx="11" cy="45" r="0.5" stroke="#A4A2A2" stroke-opacity="0.6"/>
<circle cx="27" cy="45" r="1" fill="#D9D9D9" fill-opacity="0.3"/>
<circle cx="27" cy="45" r="0.5" stroke="#A4A2A2" stroke-opacity="0.6"/>
<circle cx="31" cy="45" r="1" fill="#D9D9D9" fill-opacity="0.3"/>
<circle cx="31" cy="45" r="0.5" stroke="#A4A2A2" stroke-opacity="0.6"/>
<circle cx="7" cy="45" r="1" fill="#D9D9D9" fill-opacity="0.3"/>
<circle cx="7" cy="45" r="0.5" stroke="#A4A2A2" stroke-opacity="0.6"/>
<circle cx="35" cy="45" r="1" fill="#D9D9D9" fill-opacity="0.3"/>
<circle cx="35" cy="45" r="0.5" stroke="#A4A2A2" stroke-opacity="0.6"/>
<circle cx="15" cy="45" r="1" fill="#D9D9D9" fill-opacity="0.3"/>
<circle cx="15" cy="45" r="0.5" stroke="#A4A2A2" stroke-opacity="0.6"/>
<circle cx="23" cy="45" r="1" fill="#D9D9D9" fill-opacity="0.3"/>
<circle cx="23" cy="45" r="0.5" stroke="#A4A2A2" stroke-opacity="0.6"/>
<circle cx="19" cy="45" r="1" fill="#D9D9D9" fill-opacity="0.3"/>
<circle cx="19" cy="45" r="0.5" stroke="#A4A2A2" stroke-opacity="0.6"/>
<circle cx="11" cy="41" r="1" fill="#D9D9D9" fill-opacity="0.45"/>
<circle cx="11" cy="41" r="0.5" stroke="#A4A2A2" stroke-opacity="0.6"/>
<circle cx="27" cy="41" r="1" fill="#D9D9D9" fill-opacity="0.35"/>
<circle cx="27" cy="41" r="0.5" stroke="#A4A2A2" stroke-opacity="0.6"/>
<circle cx="31" cy="41" r="1" fill="#D9D9D9" fill-opacity="0.45"/>
<circle cx="31" cy="41" r="0.5" stroke="#A4A2A2" stroke-opacity="0.6"/>
<circle cx="7" cy="41" r="1" fill="#D9D9D9" fill-opacity="0.3"/>
<circle cx="7" cy="41" r="0.5" stroke="#A4A2A2" stroke-opacity="0.6"/>
<circle cx="35" cy="41" r="1" fill="#D9D9D9" fill-opacity="0.3"/>
<circle cx="35" cy="41" r="0.5" stroke="#A4A2A2" stroke-opacity="0.6"/>
<circle cx="15" cy="41" r="1" fill="#D9D9D9" fill-opacity="0.35"/>
<circle cx="15" cy="41" r="0.5" stroke="#A4A2A2" stroke-opacity="0.6"/>
<circle cx="23" cy="41" r="1" fill="#D9D9D9" fill-opacity="0.35"/>
<circle cx="23" cy="41" r="0.5" stroke="#A4A2A2" stroke-opacity="0.6"/>
<circle cx="19" cy="41" r="1" fill="#D9D9D9" fill-opacity="0.35"/>
<circle cx="19" cy="41" r="0.5" stroke="#A4A2A2" stroke-opacity="0.6"/>
<circle cx="11" cy="37" r="1" fill="#D9D9D9" fill-opacity="0.45"/>
<circle cx="11" cy="37" r="0.5" stroke="#A4A2A2" stroke-opacity="0.6"/>
<circle cx="27" cy="37" r="1" fill="#D9D9D9" fill-opacity="0.55"/>
<circle cx="27" cy="37" r="0.5" stroke="#A4A2A2" stroke-opacity="0.6"/>
<circle cx="31" cy="37" r="1" fill="#D9D9D9" fill-opacity="0.45"/>
<circle cx="31" cy="37" r="0.5" stroke="#A4A2A2" stroke-opacity="0.6"/>
<circle cx="7" cy="37" r="1" fill="#D9D9D9" fill-opacity="0.3"/>
<circle cx="7" cy="37" r="0.5" stroke="#A4A2A2" stroke-opacity="0.6"/>
<circle cx="35" cy="37" r="1" fill="#D9D9D9" fill-opacity="0.3"/>
<circle cx="35" cy="37" r="0.5" stroke="#A4A2A2" stroke-opacity="0.6"/>
<circle cx="15" cy="37" r="1" fill="#D9D9D9" fill-opacity="0.55"/>
<circle cx="15" cy="37" r="0.5" stroke="#A4A2A2" stroke-opacity="0.6"/>
<circle cx="23" cy="37" r="1" fill="#D9D9D9" fill-opacity="0.55"/>
<circle cx="23" cy="37" r="0.5" stroke="#A4A2A2" stroke-opacity="0.6"/>
<circle cx="19" cy="37" r="1" fill="#D9D9D9" fill-opacity="0.55"/>
<circle cx="19" cy="37" r="0.5" stroke="#A4A2A2" stroke-opacity="0.6"/>
<circle cx="11" cy="33" r="1" fill="#D9D9D9" fill-opacity="0.45"/>
<circle cx="11" cy="33" r="0.5" stroke="#A4A2A2" stroke-opacity="0.6"/>
<circle cx="27" cy="33" r="1" fill="#D9D9D9" fill-opacity="0.55"/>
<circle cx="27" cy="33" r="0.5" stroke="#A4A2A2" stroke-opacity="0.6"/>
<circle cx="31" cy="33" r="1" fill="#D9D9D9" fill-opacity="0.45"/>
<circle cx="31" cy="33" r="0.5" stroke="#A4A2A2" stroke-opacity="0.6"/>
<circle cx="7" cy="33" r="1" fill="#D9D9D9" fill-opacity="0.3"/>
<circle cx="7" cy="33" r="0.5" stroke="#A4A2A2" stroke-opacity="0.6"/>
<circle cx="35" cy="33" r="1" fill="#D9D9D9" fill-opacity="0.3"/>
<circle cx="35" cy="33" r="0.5" stroke="#A4A2A2" stroke-opacity="0.6"/>
<circle cx="15" cy="33" r="1" fill="#D9D9D9" fill-opacity="0.55"/>
<circle cx="15" cy="33" r="0.5" stroke="#A4A2A2" stroke-opacity="0.6"/>
<circle cx="23" cy="33" r="1" fill="#D9D9D9" fill-opacity="0.7"/>
<circle cx="23" cy="33" r="0.5" stroke="#A4A2A2" stroke-opacity="0.6"/>
<circle cx="19" cy="33" r="1" fill="#D9D9D9" fill-opacity="0.7"/>
<circle cx="19" cy="33" r="0.5" stroke="#A4A2A2" stroke-opacity="0.6"/>
<circle cx="11" cy="29" r="1" fill="#D9D9D9" fill-opacity="0.45"/>
<circle cx="11" cy="29" r="0.5" stroke="#A4A2A2" stroke-opacity="0.6"/>
<circle cx="27" cy="29" r="1" fill="#D9D9D9" fill-opacity="0.55"/>
<circle cx="27" cy="29" r="0.5" stroke="#A4A2A2" stroke-opacity="0.6"/>
<circle cx="31" cy="29" r="1" fill="#D9D9D9" fill-opacity="0.45"/>
<circle cx="31" cy="29" r="0.5" stroke="#A4A2A2" stroke-opacity="0.6"/>
<circle cx="7" cy="29" r="1" fill="#D9D9D9" fill-opacity="0.3"/>
<circle cx="7" cy="29" r="0.5" stroke="#A4A2A2" stroke-opacity="0.6"/>
<circle cx="35" cy="29" r="1" fill="#D9D9D9" fill-opacity="0.3"/>
<circle cx="35" cy="29" r="0.5" stroke="#A4A2A2" stroke-opacity="0.6"/>
<circle cx="15" cy="29" r="1" fill="#D9D9D9" fill-opacity="0.55"/>
<circle cx="15" cy="29" r="0.5" stroke="#A4A2A2" stroke-opacity="0.6"/>
<circle cx="23" cy="29" r="1" fill="#D9D9D9" fill-opacity="0.7"/>
<circle cx="23" cy="29" r="0.5" stroke="#A4A2A2" stroke-opacity="0.6"/>
<circle cx="19" cy="29" r="1" fill="#D9D9D9" fill-opacity="0.7"/>
<circle cx="19" cy="29" r="0.5" stroke="#A4A2A2" stroke-opacity="0.6"/>
<circle cx="11" cy="5" r="1" fill="#D9D9D9" fill-opacity="0.3"/>
<circle cx="11" cy="5" r="0.5" stroke="#A4A2A2" stroke-opacity="0.6"/>
<circle cx="27" cy="5" r="1" fill="#D9D9D9" fill-opacity="0.3"/>
<circle cx="27" cy="5" r="0.5" stroke="#A4A2A2" stroke-opacity="0.6"/>
<circle cx="31" cy="5" r="1" fill="#D9D9D9" fill-opacity="0.3"/>
<circle cx="31" cy="5" r="0.5" stroke="#A4A2A2" stroke-opacity="0.6"/>
<circle cx="7" cy="5" r="1" fill="#D9D9D9" fill-opacity="0.3"/>
<circle cx="7" cy="5" r="0.5" stroke="#A4A2A2" stroke-opacity="0.6"/>
<circle cx="35" cy="5" r="1" fill="#D9D9D9" fill-opacity="0.3"/>
<circle cx="35" cy="5" r="0.5" stroke="#A4A2A2" stroke-opacity="0.6"/>
<circle cx="15" cy="5" r="1" fill="#D9D9D9" fill-opacity="0.3"/>
<circle cx="15" cy="5" r="0.5" stroke="#A4A2A2" stroke-opacity="0.6"/>
<circle cx="23" cy="5" r="1" fill="#D9D9D9" fill-opacity="0.3"/>
<circle cx="23" cy="5" r="0.5" stroke="#A4A2A2" stroke-opacity="0.6"/>
<circle cx="19" cy="5" r="1" fill="#D9D9D9" fill-opacity="0.3"/>
<circle cx="19" cy="5" r="0.5" stroke="#A4A2A2" stroke-opacity="0.6"/>
<circle cx="11" cy="9" r="1" fill="#D9D9D9" fill-opacity="0.45"/>
<circle cx="11" cy="9" r="0.5" stroke="#A4A2A2" stroke-opacity="0.6"/>
<circle cx="27" cy="9" r="1" fill="#D9D9D9" fill-opacity="0.45"/>
<circle cx="27" cy="9" r="0.5" stroke="#A4A2A2" stroke-opacity="0.6"/>
<circle cx="31" cy="9" r="1" fill="#D9D9D9" fill-opacity="0.45"/>
<circle cx="31" cy="9" r="0.5" stroke="#A4A2A2" stroke-opacity="0.6"/>
<circle cx="7" cy="9" r="1" fill="#D9D9D9" fill-opacity="0.3"/>
<circle cx="7" cy="9" r="0.5" stroke="#A4A2A2" stroke-opacity="0.6"/>
<circle cx="35" cy="9" r="1" fill="#D9D9D9" fill-opacity="0.3"/>
<circle cx="35" cy="9" r="0.5" stroke="#A4A2A2" stroke-opacity="0.6"/>
<circle cx="15" cy="9" r="1" fill="#D9D9D9" fill-opacity="0.45"/>
<circle cx="15" cy="9" r="0.5" stroke="#A4A2A2" stroke-opacity="0.6"/>
<circle cx="23" cy="9" r="1" fill="#D9D9D9" fill-opacity="0.45"/>
<circle cx="23" cy="9" r="0.5" stroke="#A4A2A2" stroke-opacity="0.6"/>
<circle cx="19" cy="9" r="1" fill="#D9D9D9" fill-opacity="0.45"/>
<circle cx="19" cy="9" r="0.5" stroke="#A4A2A2" stroke-opacity="0.6"/>
<circle cx="11" cy="13" r="1" fill="#D9D9D9" fill-opacity="0.45"/>
<circle cx="11" cy="13" r="0.5" stroke="#A4A2A2" stroke-opacity="0.6"/>
<circle cx="27" cy="13" r="1" fill="#D9D9D9" fill-opacity="0.55"/>
<circle cx="27" cy="13" r="0.5" stroke="#A4A2A2" stroke-opacity="0.6"/>
<circle cx="31" cy="13" r="1" fill="#D9D9D9" fill-opacity="0.45"/>
<circle cx="31" cy="13" r="0.5" stroke="#A4A2A2" stroke-opacity="0.6"/>
<circle cx="7" cy="13" r="1" fill="#D9D9D9" fill-opacity="0.3"/>
<circle cx="7" cy="13" r="0.5" stroke="#A4A2A2" stroke-opacity="0.6"/>
<circle cx="35" cy="13" r="1" fill="#D9D9D9" fill-opacity="0.3"/>
<circle cx="35" cy="13" r="0.5" stroke="#A4A2A2" stroke-opacity="0.6"/>
<circle cx="15" cy="13" r="1" fill="#D9D9D9" fill-opacity="0.55"/>
<circle cx="15" cy="13" r="0.5" stroke="#A4A2A2" stroke-opacity="0.6"/>
<circle cx="23" cy="13" r="1" fill="#D9D9D9" fill-opacity="0.55"/>
<circle cx="23" cy="13" r="0.5" stroke="#A4A2A2" stroke-opacity="0.6"/>
<circle cx="19" cy="13" r="1" fill="#D9D9D9" fill-opacity="0.55"/>
<circle cx="19" cy="13" r="0.5" stroke="#A4A2A2" stroke-opacity="0.6"/>
<circle cx="11" cy="17" r="1" fill="#D9D9D9" fill-opacity="0.45"/>
<circle cx="11" cy="17" r="0.5" stroke="#A4A2A2" stroke-opacity="0.6"/>
<circle cx="27" cy="17" r="1" fill="#D9D9D9" fill-opacity="0.55"/>
<circle cx="27" cy="17" r="0.5" stroke="#A4A2A2" stroke-opacity="0.6"/>
<circle cx="31" cy="17" r="1" fill="#D9D9D9" fill-opacity="0.45"/>
<circle cx="31" cy="17" r="0.5" stroke="#A4A2A2" stroke-opacity="0.6"/>
<circle cx="7" cy="17" r="1" fill="#D9D9D9" fill-opacity="0.3"/>
<circle cx="7" cy="17" r="0.5" stroke="#A4A2A2" stroke-opacity="0.6"/>
<circle cx="35" cy="17" r="1" fill="#D9D9D9" fill-opacity="0.3"/>
<circle cx="35" cy="17" r="0.5" stroke="#A4A2A2" stroke-opacity="0.6"/>
<circle cx="15" cy="17" r="1" fill="#D9D9D9" fill-opacity="0.55"/>
<circle cx="15" cy="17" r="0.5" stroke="#A4A2A2" stroke-opacity="0.6"/>
<circle cx="23" cy="17" r="1" fill="#D9D9D9" fill-opacity="0.7"/>
<circle cx="23" cy="17" r="0.5" stroke="#A4A2A2" stroke-opacity="0.6"/>
<circle cx="19" cy="17" r="1" fill="#D9D9D9" fill-opacity="0.7"/>
<circle cx="19" cy="17" r="0.5" stroke="#A4A2A2" stroke-opacity="0.6"/>
<circle cx="11" cy="21" r="1" fill="#D9D9D9" fill-opacity="0.45"/>
<circle cx="11" cy="21" r="0.5" stroke="#A4A2A2" stroke-opacity="0.6"/>
<circle cx="27" cy="21" r="1" fill="#D9D9D9" fill-opacity="0.55"/>
<circle cx="27" cy="21" r="0.5" stroke="#A4A2A2" stroke-opacity="0.6"/>
<circle cx="31" cy="21" r="1" fill="#D9D9D9" fill-opacity="0.45"/>
<circle cx="31" cy="21" r="0.5" stroke="#A4A2A2" stroke-opacity="0.6"/>
<circle cx="7" cy="21" r="1" fill="#D9D9D9" fill-opacity="0.3"/>
<circle cx="7" cy="21" r="0.5" stroke="#A4A2A2" stroke-opacity="0.6"/>
<circle cx="35" cy="21" r="1" fill="#D9D9D9" fill-opacity="0.3"/>
<circle cx="35" cy="21" r="0.5" stroke="#A4A2A2" stroke-opacity="0.6"/>
<circle cx="15" cy="21" r="1" fill="#D9D9D9" fill-opacity="0.55"/>
<circle cx="15" cy="21" r="0.5" stroke="#A4A2A2" stroke-opacity="0.6"/>
<circle cx="23" cy="21" r="1" fill="#D9D9D9" fill-opacity="0.7"/>
<circle cx="23" cy="21" r="0.5" stroke="#A4A2A2" stroke-opacity="0.6"/>
<circle cx="19" cy="21" r="1" fill="#D9D9D9" fill-opacity="0.7"/>
<circle cx="19" cy="21" r="0.5" stroke="#A4A2A2" stroke-opacity="0.6"/>
</g>
<defs>
<filter id="filter0_d_60_2" x="0" y="0" width="42" height="58" filterUnits="userSpaceOnUse" color-interpolation-filters="sRGB">
<feFlood flood-opacity="0" result="BackgroundImageFix"/>
<feColorMatrix in="SourceAlpha" type="matrix" values="0 0 0 0 0 0 0 0 0 0 0 0 0 0 0 0 0 0 127 0" result="hardAlpha"/>
<feOffset dy="4"/>
<feGaussianBlur stdDeviation="2"/>
<feComposite in2="hardAlpha" operator="out"/>
<feColorMatrix type="matrix" values="0 0 0 0 0 0 0 0 0 0 0 0 0 0 0 0 0 0 0.25 0"/>
<feBlend mode="normal" in2="BackgroundImageFix" result="effect1_dropShadow_60_2"/>
<feBlend mode="normal" in="SourceGraphic" in2="effect1_dropShadow_60_2" result="shape"/>
</filter>
</defs>
</svg>
